<svg xmlns="http://www.w3.org/2000/svg" type="image/svg+xml" viewBox="0 0 32 32"><path d="M29.56 5.48a2 2 0 0 0-1.25-1.12l-11.83-3.94a2 2 0 0 0-1.26 0L3.39 4.36a2 2 0 0 0-1.25 1.12L.41 12.15a2 2 0 0 0 .54 2.12l14.15 14.15a2 2 0 0 0 2.83 0l14.15-14.15a2 2 0 0 0 .54-2.12l-1.73-6.67z" fill="#41D1FF"/><path d="M23.06 6.55 16 27.5 8.94 6.55 3.39 4.36l11.83-3.94a2 2 0 0 1 1.26 0l11.83 3.94-5.25 2.19z" fill="#BD34FE"/><path d="M16 27.5 8.94 6.55 16 12.33l7.06-5.78L16 27.5z" fill="#FFEA83"/><path d="M16 27.5 8.94 6.55l7.06-5.78v26.73z" fill="#FFEA83"/></svg>
